<mxfile host="app.diagrams.net" modified="2023-10-26T09:53:05.299Z" agent="Mozilla/5.0 (Windows NT 10.0; Win64; x64) AppleWebKit/537.36 (KHTML, like Gecko) Chrome/118.0.0.0 Safari/537.36" etag="IzBhg-tuets_cn2gT2Lm" version="21.5.0" type="device">
  <diagram name="Pagina-1" id="7LZ6pWeT60XzvGVR-Mtf">
    <mxGraphModel dx="2227" dy="1924" grid="1" gridSize="10" guides="1" tooltips="1" connect="1" arrows="1" fold="1" page="1" pageScale="1" pageWidth="827" pageHeight="1169" math="0" shadow="0">
      <root>
        <mxCell id="0" />
        <mxCell id="1" parent="0" />
        <mxCell id="MCIj_5yYi08A_WtVagWF-1" value="" style="whiteSpace=wrap;html=1;aspect=fixed;fillColor=#FFFFFF;" parent="1" vertex="1">
          <mxGeometry x="-560" y="-120" width="1730" height="1730" as="geometry" />
        </mxCell>
        <mxCell id="MCIj_5yYi08A_WtVagWF-2" value="" style="rounded=0;whiteSpace=wrap;html=1;fillColor=#00CC00;" parent="1" vertex="1">
          <mxGeometry x="-490" y="560" width="1580" height="105" as="geometry" />
        </mxCell>
        <mxCell id="MCIj_5yYi08A_WtVagWF-3" value="" style="rounded=1;whiteSpace=wrap;html=1;fillColor=#00CC00;" parent="1" vertex="1">
          <mxGeometry x="110" y="780" width="330" height="290" as="geometry" />
        </mxCell>
        <mxCell id="MCIj_5yYi08A_WtVagWF-4" value="&lt;b style=&quot;font-size: 16px;&quot;&gt;Donkey Travel&lt;br&gt;&lt;/b&gt;&lt;font style=&quot;font-size: 12px;&quot;&gt;Huifkar Trips!&lt;/font&gt;" style="text;html=1;strokeColor=none;fillColor=none;align=center;verticalAlign=middle;whiteSpace=wrap;rounded=0;" parent="1" vertex="1">
          <mxGeometry x="-450" y="570" width="190" height="75" as="geometry" />
        </mxCell>
        <mxCell id="MCIj_5yYi08A_WtVagWF-5" value="&lt;font style=&quot;font-size: 17px;&quot;&gt;&lt;b&gt;Home&lt;/b&gt;&lt;/font&gt;" style="text;html=1;strokeColor=none;fillColor=none;align=center;verticalAlign=middle;whiteSpace=wrap;rounded=0;" parent="1" vertex="1">
          <mxGeometry x="135" y="597.5" width="60" height="30" as="geometry" />
        </mxCell>
        <mxCell id="MCIj_5yYi08A_WtVagWF-6" value="&lt;font style=&quot;font-size: 17px;&quot;&gt;&lt;b&gt;About&lt;/b&gt;&lt;/font&gt;" style="text;html=1;strokeColor=none;fillColor=none;align=center;verticalAlign=middle;whiteSpace=wrap;rounded=0;" parent="1" vertex="1">
          <mxGeometry x="235" y="597.5" width="60" height="30" as="geometry" />
        </mxCell>
        <mxCell id="MCIj_5yYi08A_WtVagWF-7" value="&lt;font style=&quot;font-size: 17px;&quot;&gt;&lt;b&gt;Contact&lt;/b&gt;&lt;/font&gt;" style="text;html=1;strokeColor=none;fillColor=none;align=center;verticalAlign=middle;whiteSpace=wrap;rounded=0;" parent="1" vertex="1">
          <mxGeometry x="345" y="597.5" width="60" height="30" as="geometry" />
        </mxCell>
        <mxCell id="kE376KVijefxY19U1D31-2" style="edgeStyle=orthogonalEdgeStyle;rounded=0;orthogonalLoop=1;jettySize=auto;html=1;exitX=1;exitY=0.25;exitDx=0;exitDy=0;" parent="1" source="MCIj_5yYi08A_WtVagWF-9" target="MCIj_5yYi08A_WtVagWF-1" edge="1">
          <mxGeometry relative="1" as="geometry" />
        </mxCell>
        <mxCell id="MCIj_5yYi08A_WtVagWF-9" value="&lt;font style=&quot;font-size: 22px;&quot;&gt;&lt;b&gt;Login&lt;br&gt;&lt;/b&gt;&lt;/font&gt;" style="text;html=1;align=center;verticalAlign=middle;whiteSpace=wrap;rounded=0;fontColor=#191919;" parent="1" vertex="1">
          <mxGeometry x="245" y="740" width="60" height="30" as="geometry" />
        </mxCell>
        <mxCell id="MCIj_5yYi08A_WtVagWF-10" style="edgeStyle=orthogonalEdgeStyle;rounded=0;orthogonalLoop=1;jettySize=auto;html=1;exitX=0.5;exitY=1;exitDx=0;exitDy=0;" parent="1" source="MCIj_5yYi08A_WtVagWF-5" target="MCIj_5yYi08A_WtVagWF-5" edge="1">
          <mxGeometry relative="1" as="geometry" />
        </mxCell>
        <mxCell id="MCIj_5yYi08A_WtVagWF-14" value="&lt;font style=&quot;font-size: 16px;&quot;&gt;login&lt;/font&gt;" style="text;html=1;strokeColor=none;fillColor=none;align=center;verticalAlign=middle;whiteSpace=wrap;rounded=0;" parent="1" vertex="1">
          <mxGeometry x="930" y="580" width="60" height="30" as="geometry" />
        </mxCell>
        <mxCell id="MCIj_5yYi08A_WtVagWF-15" value="&lt;font style=&quot;font-size: 15px;&quot;&gt;Register&lt;br&gt;&lt;/font&gt;" style="text;html=1;strokeColor=none;fillColor=none;align=center;verticalAlign=middle;whiteSpace=wrap;rounded=0;" parent="1" vertex="1">
          <mxGeometry x="930" y="615" width="60" height="30" as="geometry" />
        </mxCell>
        <mxCell id="MCIj_5yYi08A_WtVagWF-16" value="" style="rounded=1;whiteSpace=wrap;html=1;fillColor=#999999;" parent="1" vertex="1">
          <mxGeometry x="-390" y="1190" width="1390" height="240" as="geometry" />
        </mxCell>
        <mxCell id="MCIj_5yYi08A_WtVagWF-17" value="&lt;font style=&quot;font-size: 17px;&quot;&gt;&lt;b&gt;About&lt;/b&gt;&lt;/font&gt;" style="text;html=1;strokeColor=none;fillColor=none;align=center;verticalAlign=middle;whiteSpace=wrap;rounded=0;" parent="1" vertex="1">
          <mxGeometry x="-370" y="1220" width="60" height="30" as="geometry" />
        </mxCell>
        <mxCell id="kE376KVijefxY19U1D31-1" style="edgeStyle=orthogonalEdgeStyle;rounded=0;orthogonalLoop=1;jettySize=auto;html=1;exitX=0.25;exitY=0;exitDx=0;exitDy=0;entryX=0.244;entryY=0.333;entryDx=0;entryDy=0;entryPerimeter=0;" parent="1" source="MCIj_5yYi08A_WtVagWF-14" target="MCIj_5yYi08A_WtVagWF-14" edge="1">
          <mxGeometry relative="1" as="geometry" />
        </mxCell>
        <mxCell id="kE376KVijefxY19U1D31-3" value="" style="rounded=1;whiteSpace=wrap;html=1;fontStyle=0;strokeColor=#82b891;fillColor=#82B891;" parent="1" vertex="1">
          <mxGeometry x="210" y="820" width="170" height="40" as="geometry" />
        </mxCell>
        <mxCell id="kE376KVijefxY19U1D31-4" value="" style="rounded=1;whiteSpace=wrap;html=1;fillColor=#ffffff;" parent="1" vertex="1">
          <mxGeometry x="170" y="820" width="40" height="40" as="geometry" />
        </mxCell>
        <mxCell id="kE376KVijefxY19U1D31-11" value="" style="rounded=1;whiteSpace=wrap;html=1;fontStyle=0;strokeColor=#82b891;fillColor=#82B891;" parent="1" vertex="1">
          <mxGeometry x="210" y="880" width="170" height="40" as="geometry" />
        </mxCell>
        <mxCell id="kE376KVijefxY19U1D31-12" value="" style="rounded=1;whiteSpace=wrap;html=1;fillColor=#ffffff;" parent="1" vertex="1">
          <mxGeometry x="170" y="880" width="40" height="40" as="geometry" />
        </mxCell>
        <mxCell id="kE376KVijefxY19U1D31-13" value="" style="rounded=1;whiteSpace=wrap;html=1;fontStyle=0;strokeColor=#82b891;fillColor=#82B891;" parent="1" vertex="1">
          <mxGeometry x="190" y="970" width="170" height="40" as="geometry" />
        </mxCell>
        <mxCell id="kE376KVijefxY19U1D31-14" value="Username" style="text;html=1;strokeColor=none;fillColor=none;align=center;verticalAlign=middle;whiteSpace=wrap;rounded=0;" parent="1" vertex="1">
          <mxGeometry x="260" y="825" width="60" height="30" as="geometry" />
        </mxCell>
        <mxCell id="kE376KVijefxY19U1D31-18" value="Confirm Password" style="text;html=1;strokeColor=none;fillColor=none;align=center;verticalAlign=middle;whiteSpace=wrap;rounded=0;" parent="1" vertex="1">
          <mxGeometry x="230" y="885" width="120" height="30" as="geometry" />
        </mxCell>
        <mxCell id="kE376KVijefxY19U1D31-19" value="Create Account" style="text;html=1;strokeColor=none;fillColor=none;align=center;verticalAlign=middle;whiteSpace=wrap;rounded=0;" parent="1" vertex="1">
          <mxGeometry x="222.5" y="975" width="105" height="30" as="geometry" />
        </mxCell>
        <mxCell id="kE376KVijefxY19U1D31-20" value="Are you new here?&amp;nbsp;&lt;u&gt;&lt;b&gt;Register here&lt;/b&gt;&lt;/u&gt;" style="text;html=1;strokeColor=none;fillColor=none;align=center;verticalAlign=middle;whiteSpace=wrap;rounded=0;" parent="1" vertex="1">
          <mxGeometry x="162.5" y="1020" width="225" height="30" as="geometry" />
        </mxCell>
        <mxCell id="kE376KVijefxY19U1D31-21" value="" style="html=1;verticalLabelPosition=bottom;align=center;labelBackgroundColor=#ffffff;verticalAlign=top;strokeWidth=2;strokeColor=#0080F0;shadow=0;dashed=0;shape=mxgraph.ios7.icons.user;fillColor=#1D1D1D;" parent="1" vertex="1">
          <mxGeometry x="175" y="825" width="30" height="30" as="geometry" />
        </mxCell>
        <mxCell id="kE376KVijefxY19U1D31-22" value="" style="html=1;verticalLabelPosition=bottom;align=center;labelBackgroundColor=#ffffff;verticalAlign=top;strokeWidth=2;strokeColor=#0080F0;shadow=0;dashed=0;shape=mxgraph.ios7.icons.user;fillColor=#1D1D1D;" parent="1" vertex="1">
          <mxGeometry x="175" y="885" width="30" height="30" as="geometry" />
        </mxCell>
      </root>
    </mxGraphModel>
  </diagram>
</mxfile>
